<svg xmlns="http://www.w3.org/2000/svg" width="246.292" height="187.005" viewBox="0 0 246.292 187.005">
  <g id="undraw_Post_re_mtr4" transform="translate(0 0)">
    <path id="Tracé_75" data-name="Tracé 75" d="M302.131,129.742H192.261a14.066,14.066,0,0,0-14.051,14.051V272.8a14.066,14.066,0,0,0,14.051,14.051h109.87A14.066,14.066,0,0,0,316.181,272.8V143.793A14.066,14.066,0,0,0,302.131,129.742Z" transform="translate(-178.21 -129.742)" fill="#f2f2f2"/>
    <path id="Tracé_76" data-name="Tracé 76" d="M311.94,143.6H202.07A10.017,10.017,0,0,0,192.064,153.6v129.01a10.017,10.017,0,0,0,10.006,10.006H311.94a10.017,10.017,0,0,0,10.006-10.006V153.6A10.017,10.017,0,0,0,311.94,143.6Z" transform="translate(-188.019 -139.551)" fill="#fff"/>
    <path id="Tracé_77" data-name="Tracé 77" d="M405.6,260.732H350.042a2.34,2.34,0,1,1,0-4.68H405.6a2.34,2.34,0,0,1,0,4.68Z" transform="translate(-298.217 -219.175)" fill="#f2f2f2"/>
    <path id="Tracé_78" data-name="Tracé 78" d="M415.254,287.78H350.042a2.34,2.34,0,0,1,0-4.68h65.212a2.34,2.34,0,0,1,0,4.68Z" transform="translate(-298.217 -238.326)" fill="#f2f2f2"/>
    <path id="Tracé_79" data-name="Tracé 79" d="M405.6,381.946H350.042a2.34,2.34,0,1,1,0-4.68H405.6a2.34,2.34,0,0,1,0,4.68Z" transform="translate(-298.217 -304.999)" fill="#f2f2f2"/>
    <path id="Tracé_80" data-name="Tracé 80" d="M415.254,408.994H350.042a2.34,2.34,0,0,1,0-4.68h65.212a2.34,2.34,0,0,1,0,4.68Z" transform="translate(-298.217 -324.15)" fill="#f2f2f2"/>
    <path id="Tracé_81" data-name="Tracé 81" d="M405.6,503.159H350.042a2.34,2.34,0,1,1,0-4.68H405.6a2.34,2.34,0,1,1,0,4.68Z" transform="translate(-298.217 -390.823)" fill="#f2f2f2"/>
    <path id="Tracé_82" data-name="Tracé 82" d="M415.254,530.207H350.042a2.34,2.34,0,1,1,0-4.68h65.212a2.34,2.34,0,1,1,0,4.68Z" transform="translate(-298.217 -409.974)" fill="#f2f2f2"/>
    <path id="Tracé_83" data-name="Tracé 83" d="M262.683,263.521H243.021A1.123,1.123,0,0,1,241.9,262.4V244.9a1.123,1.123,0,0,1,1.122-1.122h19.662a1.123,1.123,0,0,1,1.122,1.122v17.5A1.123,1.123,0,0,1,262.683,263.521Z" transform="translate(-223.305 -210.481)" fill="#e6e6e6"/>
    <path id="Tracé_84" data-name="Tracé 84" d="M262.683,384.734H243.021a1.123,1.123,0,0,1-1.122-1.122v-17.5a1.123,1.123,0,0,1,1.122-1.122h19.662a1.123,1.123,0,0,1,1.122,1.122v17.5A1.123,1.123,0,0,1,262.683,384.734Z" transform="translate(-223.305 -296.305)" fill="#e6e6e6"/>
    <path id="Tracé_85" data-name="Tracé 85" d="M262.683,505.947H243.021a1.123,1.123,0,0,1-1.122-1.122v-17.5a1.123,1.123,0,0,1,1.122-1.122h19.662a1.123,1.123,0,0,1,1.122,1.122v17.5A1.123,1.123,0,0,1,262.683,505.947Z" transform="translate(-223.305 -382.129)" fill="#e6e6e6"/>
    <path id="Tracé_86" data-name="Tracé 86" d="M625.744,352.547l.872-7.623,4.37-38.22.872-7.623a14.066,14.066,0,0,0-12.363-15.556l-99.168-11.34A14.066,14.066,0,0,0,504.77,284.55l0,.02L498.659,338l0,.02a14.066,14.066,0,0,0,12.363,15.556l99.168,11.34a14.066,14.066,0,0,0,15.556-12.363Z" transform="translate(-405.035 -230.534)" fill="#e6e6e6"/>
    <path id="Tracé_87" data-name="Tracé 87" d="M631.534,361.9l1.032-9.029,4.049-35.408,1.032-9.028a10.017,10.017,0,0,0-8.8-11.078l-99.168-11.34a10.017,10.017,0,0,0-11.078,8.8l0,.02-6.109,53.426,0,.02a10.017,10.017,0,0,0,8.8,11.078l99.168,11.34A10.017,10.017,0,0,0,631.534,361.9Z" transform="translate(-414.844 -240.343)" fill="#fff"/>
    <path id="Tracé_88" data-name="Tracé 88" d="M725.9,353.538l-55.2-6.312a2.34,2.34,0,0,1,.532-4.649l55.2,6.312a2.34,2.34,0,0,1-.532,4.649Z" transform="translate(-525.447 -280.426)" fill="#e6e6e6"/>
    <path id="Tracé_89" data-name="Tracé 89" d="M732.421,381.507l-64.79-7.409a2.34,2.34,0,1,1,.532-4.649l64.79,7.409a2.34,2.34,0,1,1-.532,4.649Z" transform="translate(-523.271 -299.453)" fill="#e6e6e6"/>
    <path id="Tracé_90" data-name="Tracé 90" d="M651.708,426.581l-95.521-10.923a2.34,2.34,0,1,1,.532-4.649l95.521,10.923a2.34,2.34,0,0,1-.532,4.649Z" transform="translate(-444.365 -328.879)" fill="#e6e6e6"/>
    <path id="Tracé_91" data-name="Tracé 91" d="M648.942,453.489l-95.827-10.958a2.34,2.34,0,0,1,.532-4.649l95.828,10.958a2.34,2.34,0,0,1-.532,4.649Z" transform="translate(-442.189 -347.906)" fill="#e6e6e6"/>
    <path id="Tracé_92" data-name="Tracé 92" d="M645.687,479.238l-95.52-10.923a2.34,2.34,0,1,1,.532-4.649l95.52,10.923a2.34,2.34,0,1,1-.532,4.649Z" transform="translate(-440.102 -366.162)" fill="#e6e6e6"/>
    <path id="Tracé_93" data-name="Tracé 93" d="M642.921,506.146l-95.828-10.958a2.34,2.34,0,0,1,.532-4.649L643.453,501.5a2.34,2.34,0,0,1-.532,4.649Z" transform="translate(-437.926 -385.189)" fill="#e6e6e6"/>
    <path id="Tracé_94" data-name="Tracé 94" d="M579.126,339.756l-19.535-2.234a1.123,1.123,0,0,1-.987-1.242l1.988-17.389a1.123,1.123,0,0,1,1.242-.987l19.535,2.234a1.123,1.123,0,0,1,.987,1.242l-1.988,17.389A1.123,1.123,0,0,1,579.126,339.756Z" transform="translate(-447.539 -262.962)" fill="#6c63ff"/>
    <path id="Tracé_95" data-name="Tracé 95" d="M865.021,768.684H801.082a.292.292,0,0,1,0-.584h63.939a.292.292,0,0,1,0,.584Z" transform="translate(-619.022 -581.724)" fill="#3f3d56"/>
    <path id="Tracé_96" data-name="Tracé 96" d="M938.353,382.983a2.738,2.738,0,0,0,2.458,3.4l1.978,5.935,3.9-.322-2.911-8.342a2.753,2.753,0,0,0-5.425-.673Z" transform="translate(-716.362 -307.564)" fill="#ffb8b8"/>
    <path id="Tracé_97" data-name="Tracé 97" d="M946.017,435.714h0a3.528,3.528,0,0,0,5.833-1.846l3.089-14.152a13.977,13.977,0,0,0-.36-7.293l-3.615-11.146a1.168,1.168,0,0,0-1.634-.684l-2.359,1.181a1.168,1.168,0,0,0-.6,1.37l.238.818a39.328,39.328,0,0,1,.3,20.871l-1.921,7.4A3.528,3.528,0,0,0,946.017,435.714Z" transform="translate(-721.04 -321.427)" fill="#6c63ff"/>
    <path id="Tracé_98" data-name="Tracé 98" d="M716.3,598.679h-3.338L711.374,585.8H716.3Z" transform="translate(-503.681 -414.772)" fill="#ffb8b8"/>
    <path id="Tracé_99" data-name="Tracé 99" d="M698.815,626.633h6.437v4.053h-10.49a4.053,4.053,0,0,1,4.053-4.053Z" transform="translate(-491.919 -443.681)" fill="#2f2e41"/>
    <path id="Tracé_100" data-name="Tracé 100" d="M777.92,598.679h-3.338L772.995,585.8h4.926Z" transform="translate(-547.311 -414.772)" fill="#ffb8b8"/>
    <path id="Tracé_101" data-name="Tracé 101" d="M760.437,626.633h6.437v4.053h-10.49A4.053,4.053,0,0,1,760.437,626.633Z" transform="translate(-535.55 -443.681)" fill="#2f2e41"/>
    <circle id="Ellipse_11" data-name="Ellipse 11" cx="7.171" cy="7.171" r="7.171" transform="translate(213.663 78.042)" fill="#ffb8b8"/>
    <path id="Tracé_102" data-name="Tracé 102" d="M850.552,564.625a2.738,2.738,0,0,1,3.531-2.271l4.008-4.8,3.513,1.723-5.755,6.7a2.753,2.753,0,0,1-5.3-1.353Z" transform="translate(-654.238 -432.647)" fill="#ffb8b8"/>
    <path id="Tracé_103" data-name="Tracé 103" d="M913.222,405.923a7.651,7.651,0,1,0-1.434-15.131,8.8,8.8,0,0,0-5.248-1.438,5.144,5.144,0,0,0-4.342,2.967,3.673,3.673,0,0,0,1.76,4.665,6.636,6.636,0,0,0,3.5.05,5.221,5.221,0,0,1,3.462.306c1.017.6,1.475,2.22.564,2.975a3.135,3.135,0,0,0-.9,3.451A3.428,3.428,0,0,0,913.222,405.923Z" transform="translate(-690.642 -313.539)" fill="#2f2e41"/>
    <path id="Tracé_104" data-name="Tracé 104" d="M911.431,579.706l1.272,48.273a1.168,1.168,0,0,1-1.227,1.2l-4.19-.214a1.168,1.168,0,0,1-1.094-.983l-4.984-31.353a.584.584,0,0,0-1.147-.036l-6.747,30.188a1.168,1.168,0,0,1-1.531.846l-4.159-.254a1.168,1.168,0,0,1-.774-1.183l3.63-46.937Z" transform="translate(-679.955 -448.011)" fill="#2f2e41"/>
    <path id="Tracé_105" data-name="Tracé 105" d="M918.528,467.029a13.159,13.159,0,0,0-12.007-14.452c-3.158-.224-8.062-.3-9.678,3.835-4.869,12.471,3.655,12.168.718,22.972s-5.531,11.424-1.5,12.2,22.15,5.386,21.406-2.219C917.008,484.7,917.828,474.326,918.528,467.029Z" transform="translate(-685.01 -358.262)" fill="#6c63ff"/>
    <path id="Tracé_106" data-name="Tracé 106" d="M880.106,461h0a3.528,3.528,0,0,1,4.757,3.848l-2.289,14.3a13.978,13.978,0,0,1-3,6.659l-7.433,9.058a1.168,1.168,0,0,1-1.771.041l-1.766-1.961a1.168,1.168,0,0,1-.057-1.494l.52-.675a39.328,39.328,0,0,0,7.9-19.322l.91-7.586A3.528,3.528,0,0,1,880.106,461Z" transform="translate(-666.827 -364.115)" fill="#6c63ff"/>
  </g>
</svg>
