<svg xmlns="http://www.w3.org/2000/svg" width="493.092" height="374.396" viewBox="0 0 493.092 374.396">
  <g id="undraw_Post_re_mtr4" transform="translate(0 0)">
    <path id="Tracé_75" data-name="Tracé 75" d="M426.308,129.742H206.34a28.162,28.162,0,0,0-28.13,28.13V416.159a28.162,28.162,0,0,0,28.13,28.13H426.308a28.162,28.162,0,0,0,28.13-28.13V157.872A28.162,28.162,0,0,0,426.308,129.742Z" transform="translate(-178.21 -129.742)" fill="#f2f2f2"/>
    <path id="Tracé_76" data-name="Tracé 76" d="M432.064,143.6H212.1a20.055,20.055,0,0,0-20.032,20.032V421.915A20.055,20.055,0,0,0,212.1,441.947H432.064A20.055,20.055,0,0,0,452.1,421.915V163.628A20.055,20.055,0,0,0,432.064,143.6Z" transform="translate(-183.966 -135.498)" fill="#fff"/>
    <path id="Tracé_77" data-name="Tracé 77" d="M463.622,265.422H352.386a4.684,4.684,0,1,1,0-9.369H463.622a4.684,4.684,0,0,1,0,9.369Z" transform="translate(-248.63 -182.221)" fill="#f2f2f2"/>
    <path id="Tracé_78" data-name="Tracé 78" d="M482.945,292.47H352.386a4.684,4.684,0,0,1,0-9.369H482.945a4.684,4.684,0,1,1,0,9.369Z" transform="translate(-248.63 -193.459)" fill="#f2f2f2"/>
    <path id="Tracé_79" data-name="Tracé 79" d="M463.622,386.636H352.386a4.684,4.684,0,1,1,0-9.369H463.622a4.684,4.684,0,0,1,0,9.369Z" transform="translate(-248.63 -232.582)" fill="#f2f2f2"/>
    <path id="Tracé_80" data-name="Tracé 80" d="M482.945,413.684H352.386a4.684,4.684,0,0,1,0-9.369H482.945a4.684,4.684,0,0,1,0,9.369Z" transform="translate(-248.63 -243.82)" fill="#f2f2f2"/>
    <path id="Tracé_81" data-name="Tracé 81" d="M463.622,507.849H352.386a4.684,4.684,0,1,1,0-9.369H463.622a4.684,4.684,0,0,1,0,9.369Z" transform="translate(-248.63 -282.943)" fill="#f2f2f2"/>
    <path id="Tracé_82" data-name="Tracé 82" d="M482.945,534.9H352.386a4.684,4.684,0,1,1,0-9.369H482.945a4.684,4.684,0,1,1,0,9.369Z" transform="translate(-248.63 -294.181)" fill="#f2f2f2"/>
    <path id="Tracé_83" data-name="Tracé 83" d="M283.51,283.308H244.145a2.249,2.249,0,0,1-2.246-2.246V246.02a2.249,2.249,0,0,1,2.246-2.246h39.365a2.249,2.249,0,0,1,2.246,2.246v35.041A2.249,2.249,0,0,1,283.51,283.308Z" transform="translate(-204.672 -177.119)" fill="#e6e6e6"/>
    <path id="Tracé_84" data-name="Tracé 84" d="M283.51,404.521H244.145a2.249,2.249,0,0,1-2.246-2.246V367.234a2.249,2.249,0,0,1,2.246-2.246h39.365a2.249,2.249,0,0,1,2.246,2.246v35.041A2.249,2.249,0,0,1,283.51,404.521Z" transform="translate(-204.672 -227.481)" fill="#e6e6e6"/>
    <path id="Tracé_85" data-name="Tracé 85" d="M283.51,525.734H244.145a2.249,2.249,0,0,1-2.246-2.246V488.447a2.249,2.249,0,0,1,2.246-2.246h39.365a2.249,2.249,0,0,1,2.246,2.246v35.041A2.249,2.249,0,0,1,283.51,525.734Z" transform="translate(-204.672 -277.842)" fill="#e6e6e6"/>
    <path id="Tracé_86" data-name="Tracé 86" d="M753.184,433.165l1.745-15.261,8.75-76.519,1.745-15.261a28.162,28.162,0,0,0-24.752-31.144l-198.54-22.7a28.162,28.162,0,0,0-31.144,24.752l0,.039L498.752,404.031l0,.039A28.162,28.162,0,0,0,523.5,435.214l198.54,22.7a28.162,28.162,0,0,0,31.144-24.752Z" transform="translate(-311.311 -188.886)" fill="#e6e6e6"/>
    <path id="Tracé_87" data-name="Tracé 87" d="M750.894,438l2.067-18.076,8.106-70.89,2.067-18.076a20.055,20.055,0,0,0-17.627-22.178l-198.541-22.7a20.055,20.055,0,0,0-22.178,17.627l0,.039L512.553,410.707l0,.04a20.055,20.055,0,0,0,17.627,22.178l198.54,22.7A20.055,20.055,0,0,0,750.894,438Z" transform="translate(-317.066 -194.642)" fill="#fff"/>
    <path id="Tracé_88" data-name="Tracé 88" d="M783.3,364.537,672.782,351.9a4.684,4.684,0,0,1,1.064-9.308l110.516,12.637a4.684,4.684,0,1,1-1.064,9.308Z" transform="translate(-381.968 -218.163)" fill="#e6e6e6"/>
    <path id="Tracé_89" data-name="Tracé 89" d="M799.423,393.605,669.709,378.773a4.684,4.684,0,1,1,1.064-9.308L800.488,384.3a4.684,4.684,0,1,1-1.064,9.308Z" transform="translate(-380.691 -229.328)" fill="#e6e6e6"/>
    <path id="Tracé_90" data-name="Tracé 90" d="M749.5,442.2,558.266,420.333a4.684,4.684,0,1,1,1.064-9.308l191.239,21.868A4.684,4.684,0,1,1,749.5,442.2Z" transform="translate(-334.389 -246.595)" fill="#e6e6e6"/>
    <path id="Tracé_91" data-name="Tracé 91" d="M747.046,469.143,555.193,447.205a4.684,4.684,0,0,1,1.064-9.308l191.853,21.938a4.684,4.684,0,0,1-1.064,9.308Z" transform="translate(-333.113 -257.76)" fill="#e6e6e6"/>
    <path id="Tracé_92" data-name="Tracé 92" d="M743.483,494.857,552.245,472.99a4.684,4.684,0,1,1,1.064-9.308L744.548,485.55a4.684,4.684,0,1,1-1.064,9.308Z" transform="translate(-331.888 -268.473)" fill="#e6e6e6"/>
    <path id="Tracé_93" data-name="Tracé 93" d="M741.025,521.8,549.172,499.862a4.684,4.684,0,0,1,1.064-9.308L742.09,512.492a4.684,4.684,0,1,1-1.064,9.308Z" transform="translate(-330.611 -279.638)" fill="#e6e6e6"/>
    <path id="Tracé_94" data-name="Tracé 94" d="M599.7,361.66l-39.11-4.472a2.249,2.249,0,0,1-1.977-2.487l3.981-34.814a2.249,2.249,0,0,1,2.487-1.976l39.11,4.472a2.249,2.249,0,0,1,1.977,2.487l-3.981,34.814A2.249,2.249,0,0,1,599.7,361.66Z" transform="translate(-336.252 -207.915)" fill="#6c63ff"/>
    <path id="Tracé_95" data-name="Tracé 95" d="M929.385,769.269H801.375a.585.585,0,0,1,0-1.169H929.385a.585.585,0,1,1,0,1.169Z" transform="translate(-436.878 -394.964)" fill="#3f3d56"/>
    <path id="Tracé_96" data-name="Tracé 96" d="M938.437,385.082a5.481,5.481,0,0,0,4.921,6.813l3.96,11.883,7.808-.645-5.828-16.7a5.511,5.511,0,0,0-10.861-1.348Z" transform="translate(-493.997 -234.087)" fill="#ffb8b8"/>
    <path id="Tracé_97" data-name="Tracé 97" d="M947.161,471.032h0a7.063,7.063,0,0,0,11.678-3.7L965.024,439a27.984,27.984,0,0,0-.721-14.6l-7.237-22.315a2.338,2.338,0,0,0-3.271-1.369l-4.724,2.365a2.338,2.338,0,0,0-1.2,2.744l.476,1.638a78.738,78.738,0,0,1,.6,41.784L945.1,464.053a7.063,7.063,0,0,0,2.058,6.979Z" transform="translate(-496.742 -242.222)" fill="#6c63ff"/>
    <path id="Tracé_98" data-name="Tracé 98" d="M721.234,611.58h-6.682L711.374,585.8h9.863Z" transform="translate(-295.559 -243.388)" fill="#ffb8b8"/>
    <path id="Tracé_99" data-name="Tracé 99" d="M702.876,626.633h12.888v8.114h-21a8.114,8.114,0,0,1,8.114-8.114Z" transform="translate(-288.657 -260.351)" fill="#2f2e41"/>
    <path id="Tracé_100" data-name="Tracé 100" d="M782.855,611.58h-6.682L772.995,585.8h9.863Z" transform="translate(-321.161 -243.388)" fill="#ffb8b8"/>
    <path id="Tracé_101" data-name="Tracé 101" d="M764.5,626.633h12.887v8.114h-21a8.114,8.114,0,0,1,8.114-8.114Z" transform="translate(-314.26 -260.351)" fill="#2f2e41"/>
    <circle id="Ellipse_11" data-name="Ellipse 11" cx="14.356" cy="14.356" r="14.356" transform="translate(427.767 156.246)" fill="#ffb8b8"/>
    <path id="Tracé_102" data-name="Tracé 102" d="M850.577,571.715a5.481,5.481,0,0,1,7.068-4.547l8.023-9.618L872.7,561l-11.521,13.423a5.511,5.511,0,0,1-10.6-2.708Z" transform="translate(-457.543 -307.486)" fill="#ffb8b8"/>
    <path id="Tracé_103" data-name="Tracé 103" d="M924.524,422.551a15.317,15.317,0,1,0-2.87-30.293,17.608,17.608,0,0,0-10.507-2.879c-3.679.328-7.317,2.512-8.693,5.94s.1,7.946,3.523,9.339c2.193.893,4.67.46,7.01.1s4.893-.6,6.93.612,2.953,4.446,1.128,5.955a6.277,6.277,0,0,0-1.8,6.909C920.159,420.607,922.661,422.512,924.524,422.551Z" transform="translate(-478.904 -237.594)" fill="#2f2e41"/>
    <path id="Tracé_104" data-name="Tracé 104" d="M936.064,580.163l2.547,96.645a2.338,2.338,0,0,1-2.456,2.4l-8.389-.428a2.338,2.338,0,0,1-2.19-1.968L915.6,614.038a1.169,1.169,0,0,0-2.3-.071L899.795,674.4a2.338,2.338,0,0,1-3.065,1.693l-8.326-.509a2.338,2.338,0,0,1-1.549-2.369l7.268-93.97Z" transform="translate(-472.633 -316.501)" fill="#2f2e41"/>
    <path id="Tracé_105" data-name="Tracé 105" d="M943.117,481.6c1.4-14.645-9.364-27.892-24.039-28.934-6.323-.449-16.14-.609-19.376,7.679-9.748,24.967,7.317,24.361,1.437,45.992s-11.073,22.871-3.005,24.433,44.346,10.783,42.856-4.442C940.075,516.964,941.716,496.2,943.117,481.6Z" transform="translate(-475.599 -263.837)" fill="#6c63ff"/>
    <path id="Tracé_106" data-name="Tracé 106" d="M891.928,461.235h0a7.063,7.063,0,0,1,9.524,7.7l-4.582,28.636a27.985,27.985,0,0,1-6,13.331L875.988,529.04a2.338,2.338,0,0,1-3.545.081l-3.535-3.926a2.338,2.338,0,0,1-.115-2.992l1.041-1.351a78.737,78.737,0,0,0,15.808-38.683l1.822-15.189A7.063,7.063,0,0,1,891.928,461.235Z" transform="translate(-464.93 -267.271)" fill="#6c63ff"/>
  </g>
</svg>
