<svg xmlns="http://www.w3.org/2000/svg" width="534" height="374.784" viewBox="0 0 534 374.784">
  <g id="hero-img-md" transform="translate(0 0)">
    <path id="Tracé_2" data-name="Tracé 2" d="M906.131,748.06c-3.466,13.2-15.612,21.448-15.612,21.448s-6.526-13.151-3.06-26.351,15.611-21.448,15.611-21.448S909.6,734.861,906.131,748.06Z" transform="translate(-477.296 -399.481)" fill="#3f3d56"/>
    <path id="Tracé_3" data-name="Tracé 3" d="M904.563,758.524c-9.708,9.591-10.794,24.233-10.794,24.233s14.654-.909,24.362-10.5,10.794-24.233,10.794-24.233S914.271,748.933,904.563,758.524Z" transform="translate(-480.985 -412.737)" fill="#6c63ff"/>
    <path id="Tracé_4" data-name="Tracé 4" d="M190.132,652.812h18.283l45.054-17.63s31.995-13.059,29.383,11.753-7.182,58.113-7.182,58.113-14.365-6.529-22.2-4.571-2.612-39.83-2.612-39.83-63.989,30.689-69.866,26.771-7.182-31.342-7.182-31.342Z" transform="translate(-118.307 -354.163)" fill="#2f2e41"/>
    <path id="Tracé_5" data-name="Tracé 5" d="M190.132,652.812h18.283l45.054-17.63s31.995-13.059,29.383,11.753-7.182,58.113-7.182,58.113-14.365-6.529-22.2-4.571-2.612-39.83-2.612-39.83-63.989,30.689-69.866,26.771-7.182-31.342-7.182-31.342Z" transform="translate(-118.307 -354.163)" opacity="0.1"/>
    <path id="Tracé_6" data-name="Tracé 6" d="M248.1,558.82l22.126,31.79L321.809,633.7s47.665,11.1,41.136,18.936-46.36-7.835-46.36-7.835-59.419-43.095-61.378-46.36S231.7,564.492,231.7,564.492Z" transform="translate(-147.471 -317.426)" fill="#a0616a"/>
    <path id="Tracé_7" data-name="Tracé 7" d="M248.1,558.82l22.126,31.79L321.809,633.7s47.665,11.1,41.136,18.936-46.36-7.835-46.36-7.835-59.419-43.095-61.378-46.36S231.7,564.492,231.7,564.492Z" transform="translate(-147.471 -317.426)" opacity="0.1"/>
    <path id="Tracé_8" data-name="Tracé 8" d="M216.408,507.092l14.365,28.077s-3.265,13.712-8.488,15.018-27.424-16.977-27.424-16.977Z" transform="translate(-128.912 -291.368)" fill="#d0cde1"/>
    <path id="Tracé_9" data-name="Tracé 9" d="M216.408,507.092l14.365,28.077s-3.265,13.712-8.488,15.018-27.424-16.977-27.424-16.977Z" transform="translate(-128.912 -291.368)" opacity="0.1"/>
    <path id="Tracé_10" data-name="Tracé 10" d="M571.3,644.052l4.244,17.5a1.1,1.1,0,0,1-.021.591L556.27,722.3a1.093,1.093,0,0,1-2.128-.21l-2.663-23.433a1.1,1.1,0,0,1,.047-.462l17.668-54.223a1.093,1.093,0,0,1,2.1.081Z" transform="translate(-308.555 -359.94)" fill="#2f2e41"/>
    <path id="Tracé_11" data-name="Tracé 11" d="M509.073,575.493l3.917,15.018-16.977,54.848L492.1,628.382Z" transform="translate(-247.892 -289.903)" fill="#f2f2f2"/>
    <path id="Tracé_12" data-name="Tracé 12" d="M415.8,781.861c.653,1.959,67.907-.653,68.56-1.306a14.167,14.167,0,0,0,1.436-2.612c.614-1.306,1.175-2.612,1.175-2.612l-2.612-21.142-66.6-2.364s-1.665,17.917-2,26.118A19.609,19.609,0,0,0,415.8,781.861Z" transform="translate(-240.159 -414.651)" fill="#2f2e41"/>
    <path id="Tracé_13" data-name="Tracé 13" d="M446.49,689.965l1.306,18.283H418.413V689.965Z" transform="translate(-210.774 -347.568)" opacity="0.1"/>
    <path id="Tracé_14" data-name="Tracé 14" d="M381.444,701.771l.175-.035-.828,7.871H364.467v-7.836Z" transform="translate(-183.599 -353.497)" opacity="0.1"/>
    <path id="Tracé_15" data-name="Tracé 15" d="M415.8,808.373c.653,1.959,67.907-.653,68.56-1.306a14.186,14.186,0,0,0,1.436-2.612H415.757A19.585,19.585,0,0,0,415.8,808.373Z" transform="translate(-240.159 -441.164)" opacity="0.1"/>
    <circle id="Ellipse_1" data-name="Ellipse 1" cx="29.383" cy="29.383" r="29.383" transform="translate(67.907 147.817)" fill="#a0616a"/>
    <path id="Tracé_16" data-name="Tracé 16" d="M208.667,456.4s-9.794,16.977-11.753,26.118-29.383-18.283-29.383-18.283l-3.591-9.468s25.792-12.08,23.833-21.874S208.667,456.4,208.667,456.4Z" transform="translate(-113.336 -253.083)" fill="#a0616a"/>
    <path id="Tracé_17" data-name="Tracé 17" d="M232.781,584.722l26.771,35.26,63.989,47.666s46.36,9.794,35.912,16.977-40.483-6.529-40.483-6.529-64.642-34.607-78.354-48.972S201.439,590.6,201.439,590.6Z" transform="translate(-132.226 -330.474)" fill="#a0616a"/>
    <path id="Tracé_18" data-name="Tracé 18" d="M133.239,691.116l7.835,12.406,46.763-14.712a36.767,36.767,0,0,1,30.612,3.693c8.162,5.142,13.386,13.3,1.632,25.384-23.506,24.159-39.177,11.1-39.177,11.1S101.9,766.206,88.838,747.923,75.126,720.5,75.126,720.5,125.4,689.157,133.239,691.116Z" transform="translate(-68.596 -382.019)" fill="#2f2e41"/>
    <path id="Tracé_19" data-name="Tracé 19" d="M320,776.122s20.895,13.712-3.918,20.242-43.095-2.612-43.095-2.612-21.547,0-21.547-11.1,7.182-12.406,7.182-12.406l22.2,3.265S307.592,766.328,320,776.122Z" transform="translate(-157.413 -423.93)" fill="#d0cde1"/>
    <path id="Tracé_20" data-name="Tracé 20" d="M242.664,378.432a21.906,21.906,0,0,0,6.157,2.205c2.174.259,4.65-.5,5.679-2.433a7.639,7.639,0,0,0,.645-3.454c.079-3.585-.181-7.462-2.453-10.236-1.446-1.766-3.557-2.879-5.054-4.6a21.748,21.748,0,0,1-2.555-4.174c-2.911-5.467-7.221-10.722-13.211-12.3a28.646,28.646,0,0,0-7.711-.59l-15.085.213a26.26,26.26,0,0,0-7.257.781c-4.855,1.468-8.391,5.551-11.628,9.456a59.125,59.125,0,0,0-6.669,9.2,32.3,32.3,0,0,0-3.828,15.824,14.805,14.805,0,0,0,.542,4.187,23.225,23.225,0,0,0,1.646,3.615c2.829,5.556,4.509,12.5,1.323,17.856,5.534-2.261,11.01-5.225,14.66-9.959,1.633-2.118,2.914-4.6,5.09-6.151s5.723-1.689,7.119.592a6.381,6.381,0,0,1,.72,2.989,13.7,13.7,0,0,0,.825,5.044c.726,1.554,2.455,2.808,4.106,2.343,2.843-.8,2.571-5.164,4.76-7.146,1.663-1.505,4.228-1.218,6.365-1.9a9.446,9.446,0,0,0,5.421-5.339c.809-1.814.8-6.562,2.328-7.545C236.52,375.68,240.885,377.638,242.664,378.432Z" transform="translate(-121.27 -208.623)" fill="#2f2e41"/>
    <path id="Tracé_21" data-name="Tracé 21" d="M110.24,472.3a7.749,7.749,0,0,1,4.034.01c4.191,1.125,13.588,4.1,15.6,8.637,2.612,5.877,11.753,15.018,11.753,15.018s12.406,12.406,9.794,20.894-12.406,18.283-12.406,18.283,2.612,40.483-10.447,50.93-18.283,3.265-18.283,13.059S69.8,639.611,61.968,620.675c0,0,3.918-35.26,2.612-47.666C63.293,560.783,65.177,484.5,110.24,472.3Z" transform="translate(-61.968 -273.708)" fill="#d0cde1"/>
    <path id="Tracé_22" data-name="Tracé 22" d="M170.5,504.036s39.83,29.383,32.648,41.789c0,0-24.159,11.753-29.383,11.1S148.3,533.419,143.074,531.46,135.238,494.241,170.5,504.036Z" transform="translate(-101.285 -288.964)" fill="#d0cde1"/>
    <circle id="Ellipse_2" data-name="Ellipse 2" cx="32.256" cy="32.256" r="32.256" transform="translate(214.909 85.583)" fill="#f2f2f2"/>
    <path id="Tracé_23" data-name="Tracé 23" d="M913.41,187.031H732.649V149.207H913.41Zm-179.964-.8H912.612V150H733.445Z" transform="translate(-399.822 -111.084)" fill="#3f3d56"/>
    <rect id="Rectangle_5" data-name="Rectangle 5" width="179.963" height="37.028" transform="translate(320.485 45.688)" fill="#6c63ff"/>
    <circle id="Ellipse_3" data-name="Ellipse 3" cx="2.787" cy="2.787" r="2.787" transform="translate(203.935 4.778)" fill="#6c63ff"/>
    <circle id="Ellipse_4" data-name="Ellipse 4" cx="2.787" cy="2.787" r="2.787" transform="translate(213.49 4.778)" fill="#6c63ff"/>
    <circle id="Ellipse_5" data-name="Ellipse 5" cx="2.787" cy="2.787" r="2.787" transform="translate(223.046 4.778)" fill="#6c63ff"/>
    <path id="Tracé_24" data-name="Tracé 24" d="M797.727,290.572H462.487V72.386H797.728Zm-334.445-.8H796.931V73.182H463.284Z" transform="translate(-263.728 -72.386)" fill="#3f3d56"/>
    <rect id="Rectangle_6" data-name="Rectangle 6" width="334.445" height="0.796" transform="translate(199.157 12.078)" fill="#3f3d56"/>
    <path id="Tracé_25" data-name="Tracé 25" d="M476.9,85.175a3.185,3.185,0,1,1,3.185-3.185A3.185,3.185,0,0,1,476.9,85.175Zm0-5.574a2.389,2.389,0,1,0,2.389,2.389A2.389,2.389,0,0,0,476.9,79.6Z" transform="translate(-269.387 -75.619)" fill="#3f3d56"/>
    <path id="Tracé_26" data-name="Tracé 26" d="M496.16,85.175a3.185,3.185,0,1,1,3.185-3.185A3.185,3.185,0,0,1,496.16,85.175Zm0-5.574a2.389,2.389,0,1,0,2.389,2.389A2.389,2.389,0,0,0,496.16,79.6Z" transform="translate(-279.086 -75.619)" fill="#3f3d56"/>
    <path id="Tracé_27" data-name="Tracé 27" d="M515.415,85.175A3.185,3.185,0,1,1,518.6,81.99,3.185,3.185,0,0,1,515.415,85.175Zm0-5.574A2.389,2.389,0,1,0,517.8,81.99a2.389,2.389,0,0,0-2.389-2.389Z" transform="translate(-288.786 -75.619)" fill="#3f3d56"/>
    <rect id="Rectangle_7" data-name="Rectangle 7" width="0.796" height="205.621" transform="translate(303.761 12.476)" fill="#3f3d56"/>
    <rect id="Rectangle_8" data-name="Rectangle 8" width="58.528" height="7.963" transform="translate(341.786 113.572)" fill="#f2f2f2"/>
    <rect id="Rectangle_9" data-name="Rectangle 9" width="58.528" height="7.963" transform="translate(433.759 113.572)" fill="#f2f2f2"/>
    <path id="Tracé_28" data-name="Tracé 28" d="M815.641,301.179H756.317V292.42h59.324Zm-58.528-.8h57.732v-7.167H757.114Z" transform="translate(-411.744 -183.228)" fill="#3f3d56"/>
    <rect id="Rectangle_10" data-name="Rectangle 10" width="58.528" height="7.963" transform="translate(341.786 175.285)" fill="#f2f2f2"/>
    <path id="Tracé_29" data-name="Tracé 29" d="M815.641,425.537H756.317v-8.759h59.324Zm-58.528-.8h57.732v-7.167H757.114Z" transform="translate(-411.744 -245.872)" fill="#3f3d56"/>
    <rect id="Rectangle_11" data-name="Rectangle 11" width="150.5" height="7.963" transform="translate(341.985 143.632)" fill="#f2f2f2"/>
    <path id="Tracé_30" data-name="Tracé 30" d="M908.017,363.358h-151.3V354.6h151.3Zm-150.5-.8h149.7V355.4h-149.7Z" transform="translate(-411.946 -214.55)" fill="#3f3d56"/>
    <path id="Tracé_31" data-name="Tracé 31" d="M1000.973,301.179H941.651V292.42h59.322Zm-58.528-.8h57.731v-7.167H942.447Z" transform="translate(-505.106 -183.228)" fill="#3f3d56"/>
    <path id="Tracé_32" data-name="Tracé 32" d="M537.785,291.35A32.753,32.753,0,1,1,570.538,258.6a32.753,32.753,0,0,1-32.753,32.753Zm0-64.513a31.76,31.76,0,1,0,31.76,31.76,31.76,31.76,0,0,0-31.76-31.76Z" transform="translate(-285.16 -149.69)" fill="#3f3d56"/>
    <rect id="Rectangle_12" data-name="Rectangle 12" width="140.44" height="0.993" transform="translate(371.229 369.44)" fill="#3f3d56"/>
  </g>
</svg>
