<svg xmlns="http://www.w3.org/2000/svg" width="256.311" height="179.89" viewBox="0 0 256.311 179.89">
  <g id="undraw_web_developer_p3e5" transform="translate(0 0)">
    <path id="Tracé_2" data-name="Tracé 2" d="M895.894,734.357c-1.664,6.335-7.493,10.295-7.493,10.295s-3.132-6.312-1.469-12.648,7.493-10.295,7.493-10.295S897.557,728.022,895.894,734.357Z" transform="translate(-690.06 -567.045)" fill="#3f3d56"/>
    <path id="Tracé_3" data-name="Tracé 3" d="M898.95,753.064c-4.66,4.6-5.181,11.631-5.181,11.631s7.034-.436,11.693-5.04,5.181-11.631,5.181-11.631S903.609,748.461,898.95,753.064Z" transform="translate(-695.64 -587.092)" fill="#6c63ff"/>
    <path id="Tracé_4" data-name="Tracé 4" d="M181.643,641.858h8.775l21.625-8.462s15.357-6.268,14.1,5.641-3.447,27.893-3.447,27.893-6.895-3.134-10.656-2.194-1.254-19.118-1.254-19.118-30.714,14.73-33.534,12.85-3.447-15.043-3.447-15.043Z" transform="translate(-147.168 -498.512)" fill="#2f2e41"/>
    <path id="Tracé_5" data-name="Tracé 5" d="M181.643,641.858h8.775l21.625-8.462s15.357-6.268,14.1,5.641-3.447,27.893-3.447,27.893-6.895-3.134-10.656-2.194-1.254-19.118-1.254-19.118-30.714,14.73-33.534,12.85-3.447-15.043-3.447-15.043Z" transform="translate(-147.168 -498.512)" opacity="0.1"/>
    <path id="Tracé_6" data-name="Tracé 6" d="M239.573,558.82l10.62,15.258,24.759,20.685s22.879,5.328,19.745,9.089-22.252-3.761-22.252-3.761-28.52-20.685-29.46-22.252-11.282-16.3-11.282-16.3Z" transform="translate(-191.273 -442.955)" fill="#a0616a"/>
    <path id="Tracé_7" data-name="Tracé 7" d="M239.573,558.82l10.62,15.258,24.759,20.685s22.879,5.328,19.745,9.089-22.252-3.761-22.252-3.761-28.52-20.685-29.46-22.252-11.282-16.3-11.282-16.3Z" transform="translate(-191.273 -442.955)" opacity="0.1"/>
    <path id="Tracé_8" data-name="Tracé 8" d="M205.2,507.092l6.895,13.476s-1.567,6.582-4.074,7.208-13.163-8.149-13.163-8.149Z" transform="translate(-163.207 -403.548)" fill="#d0cde1"/>
    <path id="Tracé_9" data-name="Tracé 9" d="M205.2,507.092l6.895,13.476s-1.567,6.582-4.074,7.208-13.163-8.149-13.163-8.149Z" transform="translate(-163.207 -403.548)" opacity="0.1"/>
    <path id="Tracé_10" data-name="Tracé 10" d="M560.988,643.618l2.037,8.4a.526.526,0,0,1-.01.284l-9.239,28.872a.525.525,0,0,1-1.021-.1l-1.278-11.247a.525.525,0,0,1,.022-.222l8.48-26.026a.525.525,0,0,1,1.009.039Z" transform="translate(-434.876 -507.249)" fill="#2f2e41"/>
    <path id="Tracé_11" data-name="Tracé 11" d="M500.245,575.493l1.88,7.208-8.149,26.326-1.88-8.149Z" transform="translate(-374.882 -438.415)" fill="#f2f2f2"/>
    <path id="Tracé_12" data-name="Tracé 12" d="M415.749,766.242c.313.94,32.594-.313,32.908-.627a6.8,6.8,0,0,0,.689-1.254c.295-.627.564-1.254.564-1.254l-1.254-10.148-31.967-1.135s-.8,8.6-.962,12.536A9.409,9.409,0,0,0,415.749,766.242Z" transform="translate(-331.442 -589.987)" fill="#2f2e41"/>
    <path id="Tracé_13" data-name="Tracé 13" d="M431.89,689.965l.627,8.775h-14.1v-8.775Z" transform="translate(-318.75 -525.62)" opacity="0.1"/>
    <path id="Tracé_14" data-name="Tracé 14" d="M372.616,701.753l.084-.017-.4,3.778h-7.835v-3.761Z" transform="translate(-277.654 -534.587)" opacity="0.1"/>
    <path id="Tracé_15" data-name="Tracé 15" d="M415.749,806.336c.313.94,32.594-.313,32.908-.627a6.812,6.812,0,0,0,.689-1.254H415.727A9.4,9.4,0,0,0,415.749,806.336Z" transform="translate(-331.442 -630.082)" opacity="0.1"/>
    <circle id="Ellipse_1" data-name="Ellipse 1" cx="14.103" cy="14.103" r="14.103" transform="translate(32.594 70.95)" fill="#a0616a"/>
    <path id="Tracé_16" data-name="Tracé 16" d="M185.408,443.24s-4.7,8.149-5.641,12.536-14.1-8.775-14.1-8.775l-1.724-4.544s12.38-5.8,11.439-10.5S185.408,443.24,185.408,443.24Z" transform="translate(-139.651 -345.651)" fill="#a0616a"/>
    <path id="Tracé_17" data-name="Tracé 17" d="M216.483,584.722l12.85,16.924,30.714,22.879s22.252,4.7,17.237,8.148-19.431-3.134-19.431-3.134-31.027-16.611-37.609-23.506-18.8-18.491-18.8-18.491Z" transform="translate(-168.218 -462.687)" fill="#a0616a"/>
    <path id="Tracé_18" data-name="Tracé 18" d="M103.019,689l3.761,5.955,22.445-7.061a17.647,17.647,0,0,1,14.693,1.773c3.918,2.468,6.425,6.386.784,12.184-11.283,11.6-18.8,5.328-18.8,5.328s-37.922,17.864-44.19,9.089S75.126,703.1,75.126,703.1,99.258,688.059,103.019,689Z" transform="translate(-71.992 -540.639)" fill="#2f2e41"/>
    <path id="Tracé_19" data-name="Tracé 19" d="M284.345,773.066s10.029,6.582-1.88,9.716-20.685-1.254-20.685-1.254-10.342,0-10.342-5.328,3.447-5.955,3.447-5.955l10.656,1.567S278.391,768.365,284.345,773.066Z" transform="translate(-206.308 -604.02)" fill="#d0cde1"/>
    <path id="Tracé_20" data-name="Tracé 20" d="M209.916,359.92a10.514,10.514,0,0,0,2.955,1.059,2.7,2.7,0,0,0,2.726-1.168,3.667,3.667,0,0,0,.31-1.658c.038-1.721-.087-3.581-1.177-4.913-.694-.848-1.707-1.382-2.426-2.209a10.438,10.438,0,0,1-1.226-2c-1.4-2.624-3.466-5.146-6.341-5.9a13.751,13.751,0,0,0-3.7-.283l-7.24.1a12.6,12.6,0,0,0-3.483.375c-2.33.7-4.027,2.664-5.581,4.539a28.38,28.38,0,0,0-3.2,4.418,15.5,15.5,0,0,0-1.837,7.6,7.106,7.106,0,0,0,.26,2.01,11.148,11.148,0,0,0,.79,1.735c1.358,2.667,2.164,6,.635,8.571a16.467,16.467,0,0,0,7.037-4.78,13.179,13.179,0,0,1,2.443-2.952c1.045-.746,2.747-.811,3.417.284a3.063,3.063,0,0,1,.346,1.434,6.576,6.576,0,0,0,.4,2.421,1.814,1.814,0,0,0,1.971,1.124c1.365-.384,1.234-2.479,2.285-3.43.8-.723,2.03-.584,3.055-.912a4.534,4.534,0,0,0,2.6-2.563c.388-.871.383-3.15,1.117-3.621C206.967,358.6,209.062,359.539,209.916,359.92Z" transform="translate(-151.649 -278.415)" fill="#2f2e41"/>
    <path id="Tracé_21" data-name="Tracé 21" d="M85.138,472.16a3.72,3.72,0,0,1,1.936,0c2.012.54,6.522,1.97,7.489,4.146,1.254,2.821,5.641,7.208,5.641,7.208s5.955,5.955,4.7,10.029-5.955,8.775-5.955,8.775,1.254,19.431-5.015,24.446-8.775,1.567-8.775,6.268-19.431,19.431-23.192,10.342c0,0,1.88-16.924,1.254-22.879C62.6,514.632,63.508,478.015,85.138,472.16Z" transform="translate(-61.968 -376.841)" fill="#d0cde1"/>
    <path id="Tracé_22" data-name="Tracé 22" d="M154.647,503.144s19.118,14.1,15.67,20.058c0,0-11.6,5.641-14.1,5.328s-12.223-11.283-14.73-12.223S137.723,498.443,154.647,503.144Z" transform="translate(-121.426 -399.913)" fill="#d0cde1"/>
    <circle id="Ellipse_2" data-name="Ellipse 2" cx="15.483" cy="15.483" r="15.483" transform="translate(103.153 41.078)" fill="#f2f2f2"/>
    <path id="Tracé_23" data-name="Tracé 23" d="M819.411,167.362H732.649V149.207h86.762Zm-86.38-.382h86V149.589h-86Z" transform="translate(-572.898 -130.909)" fill="#3f3d56"/>
    <rect id="Rectangle_5" data-name="Rectangle 5" width="86.379" height="17.773" transform="translate(153.827 21.929)" fill="#6c63ff"/>
    <circle id="Ellipse_3" data-name="Ellipse 3" cx="1.338" cy="1.338" r="1.338" transform="translate(97.885 2.293)" fill="#6c63ff"/>
    <circle id="Ellipse_4" data-name="Ellipse 4" cx="1.338" cy="1.338" r="1.338" transform="translate(102.472 2.293)" fill="#6c63ff"/>
    <circle id="Ellipse_5" data-name="Ellipse 5" cx="1.338" cy="1.338" r="1.338" transform="translate(107.058 2.293)" fill="#6c63ff"/>
    <path id="Tracé_24" data-name="Tracé 24" d="M623.4,177.111H462.487V72.386H623.4Zm-160.528-.382H623.015V72.768H462.869Z" transform="translate(-367.086 -72.386)" fill="#3f3d56"/>
    <rect id="Rectangle_6" data-name="Rectangle 6" width="160.528" height="0.382" transform="translate(95.592 5.797)" fill="#3f3d56"/>
    <path id="Tracé_25" data-name="Tracé 25" d="M475.248,81.862a1.529,1.529,0,1,1,1.529-1.529A1.529,1.529,0,0,1,475.248,81.862Zm0-2.675a1.147,1.147,0,1,0,1.147,1.147,1.147,1.147,0,0,0-1.147-1.147Z" transform="translate(-375.643 -77.276)" fill="#3f3d56"/>
    <path id="Tracé_26" data-name="Tracé 26" d="M494.5,81.862a1.529,1.529,0,1,1,1.529-1.529A1.529,1.529,0,0,1,494.5,81.862Zm0-2.675a1.147,1.147,0,1,0,1.147,1.147,1.147,1.147,0,0,0-1.147-1.147Z" transform="translate(-390.312 -77.276)" fill="#3f3d56"/>
    <path id="Tracé_27" data-name="Tracé 27" d="M513.759,81.862a1.529,1.529,0,1,1,1.529-1.529A1.529,1.529,0,0,1,513.759,81.862Zm0-2.675a1.147,1.147,0,1,0,1.147,1.147,1.147,1.147,0,0,0-1.147-1.147Z" transform="translate(-404.981 -77.276)" fill="#3f3d56"/>
    <rect id="Rectangle_7" data-name="Rectangle 7" width="0.382" height="98.694" transform="translate(145.8 5.988)" fill="#3f3d56"/>
    <rect id="Rectangle_8" data-name="Rectangle 8" width="28.092" height="3.822" transform="translate(164.051 54.513)" fill="#f2f2f2"/>
    <rect id="Rectangle_9" data-name="Rectangle 9" width="28.092" height="3.822" transform="translate(208.197 54.513)" fill="#f2f2f2"/>
    <path id="Tracé_28" data-name="Tracé 28" d="M784.792,296.624H756.317v-4.2h28.475Zm-28.092-.382h27.71V292.8H756.7Z" transform="translate(-590.928 -240.01)" fill="#3f3d56"/>
    <rect id="Rectangle_10" data-name="Rectangle 10" width="28.092" height="3.822" transform="translate(164.051 84.134)" fill="#f2f2f2"/>
    <path id="Tracé_29" data-name="Tracé 29" d="M784.792,420.982H756.317v-4.2h28.475ZM756.7,420.6h27.71v-3.44H756.7Z" transform="translate(-590.928 -334.746)" fill="#3f3d56"/>
    <rect id="Rectangle_11" data-name="Rectangle 11" width="72.238" height="3.822" transform="translate(164.147 68.941)" fill="#f2f2f2"/>
    <path id="Tracé_30" data-name="Tracé 30" d="M829.339,358.8H756.718v-4.2h72.62Zm-72.239-.382h71.856v-3.44H757.1Z" transform="translate(-591.234 -287.378)" fill="#3f3d56"/>
    <path id="Tracé_31" data-name="Tracé 31" d="M970.125,296.624H941.651v-4.2h28.473Zm-28.092-.382h27.71V292.8H942.033Z" transform="translate(-732.117 -240.01)" fill="#3f3d56"/>
    <path id="Tracé_32" data-name="Tracé 32" d="M520.753,257.286a15.721,15.721,0,1,1,15.721-15.721,15.721,15.721,0,0,1-15.721,15.721Zm0-30.965A15.244,15.244,0,1,0,536,241.565a15.244,15.244,0,0,0-15.244-15.244Z" transform="translate(-399.497 -189.291)" fill="#3f3d56"/>
    <rect id="Rectangle_12" data-name="Rectangle 12" width="67.409" height="0.476" transform="translate(178.184 177.325)" fill="#3f3d56"/>
  </g>
</svg>
