<svg xmlns="http://www.w3.org/2000/svg" width="34" height="33.993" viewBox="0 0 34 33.993">
  <g id="published" transform="translate(-0.001 -0.074)">
    <path id="Tracé_78" data-name="Tracé 78" d="M23.6,34.067a1.708,1.708,0,0,0,1.643-1.257l1.567-5.849,5.933-1.586a1.7,1.7,0,0,0,1.2-2.081L30.867,11.829l.244-.906a1.7,1.7,0,0,0-1.025-2.016L28.7,3.736a1.711,1.711,0,0,0-2.082-1.2L16.5,5.247,8.017,2.972a1.666,1.666,0,0,0-1.052.057L4.846.913a2.832,2.832,0,1,0-4.006,4L4.7,8.781.074,26.06a1.7,1.7,0,0,0,1.2,2.084l21.889,5.865a1.666,1.666,0,0,0,.441.059Zm9.244-10.48a.567.567,0,0,1-.4.692l-5.3,1.416,3.128-11.676ZM26.909,3.628a.567.567,0,0,1,.7.4l1.208,4.514L18.69,5.833ZM17.165,17.241l-2.86-.953,1.907-1.909.953,2.86ZM14.86,14.133,10.053,9.325a.567.567,0,1,0-.8.8l4.807,4.806-.8.8L5.246,7.723l.8-.8,1.6,1.6a.567.567,0,0,0,.8-.8l-1.6-1.6.8-.8,8.011,8.012ZM3.644,6.121l2.4-2.4.8.8-2.4,2.4Zm-2.5-3.2a1.7,1.7,0,0,1,2.9-1.2l1.2,1.2-2.4,2.4-1.2-1.2a1.688,1.688,0,0,1-.5-1.2Zm.026,23.441L5.629,9.708l7.229,7.229a.557.557,0,0,0,.208.129s.008.006.013.008l3.732,1.246a1.139,1.139,0,0,0,.361.057,1.122,1.122,0,0,0,.6-.177l6.515,1.749a.544.544,0,0,0,.147.02.566.566,0,0,0,.146-1.114l-6.288-1.688a1.172,1.172,0,0,0-.052-.283L16.995,13.15c0-.005-.006-.009-.009-.014a.562.562,0,0,0-.128-.207L8.1,4.17,29.613,9.932a.567.567,0,0,1,.4.695L24.152,32.513a.566.566,0,0,1-.695.4L1.57,27.052a.566.566,0,0,1-.4-.694Zm0,0" transform="translate(0 0)" fill="#fff"/>
    <path id="Tracé_79" data-name="Tracé 79" d="M273.083,154.429a.567.567,0,0,0,.146-1.114l-8.057-2.159a.566.566,0,1,0-.294,1.094l8.058,2.159a.561.561,0,0,0,.147.019Zm0,0" transform="translate(-246.887 -141.03)" fill="#fff"/>
    <path id="Tracé_80" data-name="Tracé 80" d="M296.182,213.657a.567.567,0,0,0,.146-1.114l-5.478-1.465a.566.566,0,1,0-.292,1.094l5.478,1.466A.566.566,0,0,0,296.182,213.657Zm0,0" transform="translate(-270.866 -196.975)" fill="#fff"/>
    <path id="Tracé_81" data-name="Tracé 81" d="M84.7,261.815l-1.643-.44a.566.566,0,1,0-.294,1.094l1.643.441a.576.576,0,0,0,.147.019.567.567,0,0,0,.147-1.114Zm0,0" transform="translate(-76.864 -243.932)" fill="#fff"/>
    <path id="Tracé_82" data-name="Tracé 82" d="M170.94,285.495a.566.566,0,0,0-.4-.693l-12.586-3.372a.566.566,0,0,0-.293,1.091l12.585,3.372a.552.552,0,0,0,.147.02.566.566,0,0,0,.547-.418Zm0,0" transform="translate(-146.836 -262.667)" fill="#fff"/>
    <path id="Tracé_83" data-name="Tracé 83" d="M71.647,311.322,70,310.882a.567.567,0,0,0-.293,1.095l1.643.44a.538.538,0,0,0,.147.02.566.566,0,0,0,.147-1.114Zm0,0" transform="translate(-64.692 -290.156)" fill="#fff"/>
    <path id="Tracé_84" data-name="Tracé 84" d="M156.55,334.07,143.965,330.7a.567.567,0,1,0-.294,1.094l12.585,3.372a.554.554,0,0,0,.147.02.567.567,0,0,0,.146-1.114Zm0,0" transform="translate(-133.727 -308.652)" fill="#fff"/>
  </g>
</svg>
